# xmcd CD database file
#
# Track frame offsets:
#	150
#	20307
#	28047
#	52780
#	61650
#	85837
#	109355
#	124147
#	150620
#	169597
#	177470
#	204405
#	220622
#	229550
#	250515
#	272622
#	306270
#	319337
#	343897
#
# Disc length: 4733 seconds
#
# Revision: 0
# Processed by: cddbd v1.5.1PL0 Copyright (c) Steve Scherf et al.
# Submitted via: CDex 1.50beta10
#
DISCID=fb127b13
DTITLE=Various Artist - Jazz Night And Day CD2
DYEAR=1997
DGENRE=Jazz
TTITLE0=Chico Hamilton - For Mods Only
TTITLE1=James Moody - Tico Tico
TTITLE2=Sonny Rollins - Hold 'Em Joe
TTITLE3=Betty Carter - Jazz (Ain't Nothing But Soul)
TTITLE4=Stanley Turrentine - Good Lookin' Out
TTITLE5=Duke Ellington and Coleman Hawkins - Limbo Jazz
TTITLE6=Diane Schuur - Caught A Touch Of Your Love
TTITLE7=Ramsey Lewis - In The Crowd
TTITLE8=The Jazztet - Killer Joe
TTITLE9=Shirley Horn - Sunday In New York
TTITLE10=Sonny Stitt and Bennie Green - My Main Man
TTITLE11=Lionel Hampton - Pick A Rib
TTITLE12=Carmen McRae - Yardbird Suite
TTITLE13=Kenny Burrell - Hot Bossa
TTITLE14=Zoot Sims - 9:20 Special
TTITLE15=Johnny Hodges - Everybody Knows
TTITLE16=Nat King Cole Trio - Hit That Jive, Jack
TTITLE17=Odell Brown - Mellow Yellow
TTITLE18=Johnny Hartman - The Day The World Stopped Turning
EXTD=YEAR: 1997
EXTT0=
EXTT1=
EXTT2=
EXTT3=
EXTT4=
EXTT5=
EXTT6=
EXTT7=
EXTT8=
EXTT9=
EXTT10=
EXTT11=
EXTT12=
EXTT13=
EXTT14=
EXTT15=
EXTT16=
EXTT17=
EXTT18=
PLAYORDER=
